<svg width="15" height="22" viewBox="0 0 15 22" fill="none" xmlns="http://www.w3.org/2000/svg">
<path d="M7.59756 21.3209C8.30314 21.3209 8.87596 20.7854 8.87596 20.1238C8.87596 19.4631 8.87596 18.9276 8.87596 18.9276C12.3662 18.6098 14.6767 16.7776 14.6767 13.797V13.7483C14.6767 10.719 12.7103 9.32669 8.80217 8.4231V5.58937C9.3648 5.72602 9.94745 5.91966 10.5169 6.17084C11.4333 6.57456 12.5469 6.32151 13.1033 5.41748C13.6602 4.51399 13.3594 3.24486 12.3278 2.78459C11.3006 2.32681 10.1733 2.01144 8.92456 1.87577V1.14265C8.92456 0.738496 8.35263 0.410072 7.64661 0.410072C6.94059 0.410072 6.36821 0.72207 6.36821 1.10545C6.36821 1.49034 6.36821 1.80181 6.36821 1.80181C2.60681 2.07083 0.493125 4.07396 0.493125 6.95652V7.00579C0.493125 10.0347 2.50863 11.3791 6.4663 12.2821V15.214C5.51684 15.0619 4.5873 14.7485 3.64123 14.2684C2.63343 13.7574 1.39881 13.9381 0.788023 14.8353C0.176787 15.732 0.423622 17.0061 1.43964 17.5015C2.93235 18.2302 4.61937 18.7063 6.31863 18.8793V20.1005C6.31916 20.7743 6.89154 21.3209 7.59756 21.3209ZM8.77688 12.6733C10.0558 13.0394 10.4241 13.4065 10.4241 14.0656V14.1149C10.4241 14.8233 9.90805 15.2381 8.77688 15.3608V12.6733ZM4.81913 6.63875V6.59C4.81913 5.955 5.28653 5.46623 6.4906 5.36874V8.0074C5.16369 7.6408 4.81913 7.27375 4.81913 6.63875Z" fill="url(#paint0_linear_0_589)"/>
<defs>
<linearGradient id="paint0_linear_0_589" x1="7.56703" y1="0.410072" x2="7.56703" y2="21.3209" gradientUnits="userSpaceOnUse">
<stop stop-color="#B0B0FC"/>
<stop offset="1" stop-color="#9997FF"/>
</linearGradient>
</defs>
</svg>
