<svg width="14" height="14" viewBox="0 0 14 14" fill="none" xmlns="http://www.w3.org/2000/svg">
<path d="M12.413 10.9294L8.72842 7.24479L12.0599 2.6873L12.4136 2.33382L12.4135 2.33373L11.6417 1.56165L11.6415 1.56146C11.4791 1.39911 11.2587 1.30775 11.0287 1.30775C10.7987 1.30775 10.5783 1.3991 10.4158 1.56146L10.4157 1.56159L6.73065 5.24692L3.0456 1.56159L3.04548 1.56146C2.88301 1.3991 2.66261 1.30775 2.43262 1.30775C2.20267 1.30775 1.98221 1.39908 1.81972 1.56152L1.81959 1.56165L1.04787 2.3337C1.04784 2.33373 1.04781 2.33377 1.04777 2.3338C1.04777 2.33381 1.04776 2.33382 1.04775 2.33382C0.709108 2.67251 0.709232 3.22111 1.04782 3.55972L1.04783 3.55973L4.73289 7.24481L1.04823 10.9294L1.04813 10.9295C0.7097 11.2681 0.709609 11.8167 1.04816 12.1553C1.04817 12.1553 1.04818 12.1553 1.04819 12.1553L1.82005 12.9275L1.8201 12.9276C1.98262 13.0901 2.20313 13.1814 2.43306 13.1814C2.66308 13.1814 2.88344 13.09 3.04589 12.9277L3.04607 12.9275L6.73063 9.24269L10.4152 12.9276L10.4153 12.9277C10.5778 13.09 10.7982 13.1814 11.0282 13.1814C11.2582 13.1814 11.4787 13.0901 11.6412 12.9276L11.6412 12.9275L12.4131 12.1553C12.4131 12.1553 12.4131 12.1553 12.4131 12.1553C12.7517 11.8167 12.7516 11.2681 12.4131 10.9295L12.413 10.9294Z" fill="url(#paint0_linear_0_590)" stroke="url(#paint1_linear_0_590)"/>
<defs>
<linearGradient id="paint0_linear_0_590" x1="6.73065" y1="1.80775" x2="6.73065" y2="12.6814" gradientUnits="userSpaceOnUse">
<stop stop-color="#B0B0FC"/>
<stop offset="1" stop-color="#9D9CFE"/>
</linearGradient>
<linearGradient id="paint1_linear_0_590" x1="6.73065" y1="1.80775" x2="6.73065" y2="12.6814" gradientUnits="userSpaceOnUse">
<stop stop-color="#B0B0FC"/>
<stop offset="0.9999" stop-color="#9D9BFE"/>
</linearGradient>
</defs>
</svg>
