<svg width="15" height="14" viewBox="0 0 15 14" fill="none" xmlns="http://www.w3.org/2000/svg">
<mask id="path-1-outside-1_0_591" maskUnits="userSpaceOnUse" x="0.457336" y="-0.467445" width="15" height="15" fill="black">
<rect fill="white" x="0.457336" y="-0.467445" width="15" height="15"/>
<path d="M13.3765 7.1185C13.3765 10.4099 10.7083 13.0781 7.41693 13.0781C4.12554 13.0781 1.45734 10.4099 1.45734 7.1185C1.45734 3.8271 4.12554 1.15889 7.41693 1.15889C10.7083 1.15889 13.3765 3.8271 13.3765 7.1185Z"/>
<path d="M11.8098 2.03996C10.8884 1.25135 9.80461 0.776536 8.68804 0.605272C6.61476 0.287204 4.42909 1.01585 2.96482 2.72663C0.711942 5.35878 1.01934 9.31876 3.65148 11.5717C4.5728 12.3603 5.65658 12.835 6.77316 13.0063C8.84639 13.3244 11.0322 12.5957 12.4964 10.8849C14.7493 8.25279 14.4418 4.29281 11.8098 2.03996ZM13.0256 8.62562L11.1084 7.96468C11.3666 7.21128 11.3635 6.39436 11.109 5.64883L13.0242 4.98971C13.1755 5.43207 13.2722 5.89656 13.3094 6.37527C13.3696 7.15009 13.2707 7.91242 13.0256 8.62562ZM11.9496 3.13395L10.4232 4.45988C10.3103 4.3306 10.1871 4.20762 10.0529 4.09268C9.56759 3.67736 9.00293 3.41579 8.41779 3.30166L8.80268 1.32363C9.74765 1.50687 10.6313 1.92854 11.3687 2.55972C11.5777 2.73865 11.7716 2.93069 11.9496 3.13395ZM5.82679 1.54746C6.09881 1.44949 6.37782 1.37357 6.66089 1.31944L7.04544 3.30178C6.29263 3.4485 5.58189 3.83716 5.03983 4.45882L3.51191 3.13006C4.13755 2.41216 4.93619 1.86845 5.82679 1.54746ZM2.43592 4.98599L4.35283 5.64688C4.0946 6.40028 4.09773 7.21712 4.35219 7.9627L2.43537 8.62236C2.28463 8.18051 2.18836 7.71674 2.15128 7.23904C2.09111 6.46355 2.1903 5.70008 2.43592 4.98599ZM3.5084 10.4802L5.03801 9.15164C5.15096 9.28097 5.27415 9.40403 5.40847 9.51897C5.89369 9.93429 6.45831 10.1958 7.04341 10.31L6.65649 12.2988C5.71172 12.1148 4.82895 11.6885 4.09181 11.0575C3.88169 10.8777 3.68707 10.6847 3.5084 10.4802ZM9.63343 12.0701C9.36221 12.1678 9.08388 12.244 8.80153 12.2988L8.41571 10.3098C9.16852 10.1631 9.87931 9.77441 10.4214 9.1527L11.95 10.4819C11.3241 11.2006 10.5244 11.749 9.63343 12.0701Z"/>
</mask>
<path d="M13.3765 7.1185C13.3765 10.4099 10.7083 13.0781 7.41693 13.0781C4.12554 13.0781 1.45734 10.4099 1.45734 7.1185C1.45734 3.8271 4.12554 1.15889 7.41693 1.15889C10.7083 1.15889 13.3765 3.8271 13.3765 7.1185Z" fill="url(#paint0_linear_0_591)"/>
<path d="M11.8098 2.03996C10.8884 1.25135 9.80461 0.776536 8.68804 0.605272C6.61476 0.287204 4.42909 1.01585 2.96482 2.72663C0.711942 5.35878 1.01934 9.31876 3.65148 11.5717C4.5728 12.3603 5.65658 12.835 6.77316 13.0063C8.84639 13.3244 11.0322 12.5957 12.4964 10.8849C14.7493 8.25279 14.4418 4.29281 11.8098 2.03996ZM13.0256 8.62562L11.1084 7.96468C11.3666 7.21128 11.3635 6.39436 11.109 5.64883L13.0242 4.98971C13.1755 5.43207 13.2722 5.89656 13.3094 6.37527C13.3696 7.15009 13.2707 7.91242 13.0256 8.62562ZM11.9496 3.13395L10.4232 4.45988C10.3103 4.3306 10.1871 4.20762 10.0529 4.09268C9.56759 3.67736 9.00293 3.41579 8.41779 3.30166L8.80268 1.32363C9.74765 1.50687 10.6313 1.92854 11.3687 2.55972C11.5777 2.73865 11.7716 2.93069 11.9496 3.13395ZM5.82679 1.54746C6.09881 1.44949 6.37782 1.37357 6.66089 1.31944L7.04544 3.30178C6.29263 3.4485 5.58189 3.83716 5.03983 4.45882L3.51191 3.13006C4.13755 2.41216 4.93619 1.86845 5.82679 1.54746ZM2.43592 4.98599L4.35283 5.64688C4.0946 6.40028 4.09773 7.21712 4.35219 7.9627L2.43537 8.62236C2.28463 8.18051 2.18836 7.71674 2.15128 7.23904C2.09111 6.46355 2.1903 5.70008 2.43592 4.98599ZM3.5084 10.4802L5.03801 9.15164C5.15096 9.28097 5.27415 9.40403 5.40847 9.51897C5.89369 9.93429 6.45831 10.1958 7.04341 10.31L6.65649 12.2988C5.71172 12.1148 4.82895 11.6885 4.09181 11.0575C3.88169 10.8777 3.68707 10.6847 3.5084 10.4802ZM9.63343 12.0701C9.36221 12.1678 9.08388 12.244 8.80153 12.2988L8.41571 10.3098C9.16852 10.1631 9.87931 9.77441 10.4214 9.1527L11.95 10.4819C11.3241 11.2006 10.5244 11.749 9.63343 12.0701Z" fill="url(#paint1_linear_0_591)"/>
<path d="M13.3833 4.93614V4.93614C13.3833 4.93614 13.3833 4.93614 13.3833 4.93614V4.93614C13.3833 4.93614 13.3833 4.93614 13.3833 4.93613V4.93613C13.3833 4.93613 13.3833 4.93613 13.3833 4.93613V4.93613C13.3833 4.93613 13.3833 4.93613 13.3833 4.93613V4.93613C13.3833 4.93613 13.3833 4.93613 13.3833 4.93613C13.3833 4.93613 13.3833 4.93613 13.3833 4.93613V4.93613C13.3833 4.93613 13.3833 4.93613 13.3833 4.93613V4.93613V4.93613C13.3833 4.93613 13.3833 4.93613 13.3833 4.93613C13.3833 4.93613 13.3833 4.93613 13.3833 4.93613V4.93613V4.93613C13.3833 4.93612 13.3833 4.93612 13.3833 4.93612C13.3833 4.93612 13.3833 4.93612 13.3833 4.93612V4.93612V4.93612V4.93612C13.3833 4.93612 13.3833 4.93612 13.3833 4.93612C13.3833 4.93612 13.3833 4.93612 13.3833 4.93612C13.3833 4.93612 13.3833 4.93612 13.3833 4.93612C13.3833 4.93612 13.3833 4.93612 13.3833 4.93612C13.3833 4.93612 13.3833 4.93612 13.3833 4.93612C13.3833 4.93612 13.3833 4.93612 13.3833 4.93612C13.3833 4.93612 13.3833 4.93612 13.3833 4.93612C13.3833 4.93612 13.3833 4.93612 13.3833 4.93612C13.3833 4.93612 13.3833 4.93612 13.3833 4.93612C13.3833 4.93612 13.3833 4.93612 13.3833 4.93612C13.3833 4.93612 13.3833 4.93612 13.3833 4.93612C13.3833 4.93612 13.3833 4.93612 13.3833 4.93612C13.3833 4.93612 13.3833 4.93612 13.3833 4.93612C13.3833 4.93612 13.3833 4.93612 13.3833 4.93612C13.3833 4.93612 13.3833 4.93612 13.3833 4.93611C13.3833 4.93611 13.3833 4.93611 13.3833 4.93611C13.3833 4.93611 13.3833 4.93611 13.3833 4.93611V4.93611V4.93611C13.3833 4.93611 13.3833 4.93611 13.3833 4.93611C13.3833 4.93611 13.3833 4.93611 13.3833 4.93611V4.93611V4.93611C13.3833 4.93611 13.3833 4.93611 13.3833 4.93611V4.93611C13.3833 4.93611 13.3833 4.93611 13.3833 4.93611C13.3833 4.93611 13.3833 4.93611 13.3833 4.93611C13.3833 4.93611 13.3833 4.93611 13.3833 4.93611C13.3833 4.93611 13.3833 4.93611 13.3833 4.93611C13.3833 4.93611 13.3833 4.93611 13.3833 4.93611V4.93611V4.93611C13.3833 4.93611 13.3833 4.93611 13.3833 4.93611C13.3833 4.93611 13.3833 4.93611 13.3833 4.93611C13.3833 4.93611 13.3833 4.93611 13.3833 4.93611C13.3833 4.9361 13.3833 4.9361 13.3833 4.9361V4.9361C13.3833 4.9361 13.3833 4.9361 13.3833 4.9361C13.3833 4.9361 13.3833 4.9361 13.3833 4.9361C13.3833 4.9361 13.3833 4.9361 13.3833 4.9361C13.3833 4.9361 13.3833 4.9361 13.3833 4.9361C13.3833 4.9361 13.3833 4.9361 13.3833 4.9361C13.3833 4.9361 13.3833 4.9361 13.3833 4.9361V4.9361C13.1333 4.9361 12.8833 4.9361 12.8833 4.9361C12.8833 4.9361 12.8833 4.9361 12.8833 4.9361C12.8833 4.9361 12.8833 4.9361 12.8833 4.9361C12.8833 4.9361 12.8833 4.9361 12.8833 4.9361C12.8833 4.9361 12.8833 4.9361 12.8833 4.9361V4.9361C12.8833 4.9361 12.8833 4.9361 12.8833 4.9361C12.8833 4.9361 12.8833 4.9361 12.8833 4.9361C12.8833 4.9361 12.8833 4.9361 12.8833 4.9361C12.8833 4.9361 12.8833 4.9361 12.8833 4.93611C12.8833 4.93611 12.8833 4.93611 12.8833 4.93611C12.8833 4.93611 12.8833 4.93611 12.8833 4.93611C12.8833 4.93611 12.8833 4.93611 12.8833 4.93611V4.93611V4.93611C12.8833 4.93611 12.8833 4.93611 12.8833 4.93611C12.8833 4.93611 12.8833 4.93611 12.8833 4.93611C12.8833 4.93611 12.8833 4.93611 12.8833 4.93611C12.8833 4.93611 12.8833 4.93611 12.8833 4.93611C12.8833 4.93611 12.8833 4.93611 12.8833 4.93611V4.93611V4.93611C12.8833 4.93611 12.8833 4.93611 12.8833 4.93611C12.8833 4.93611 12.8833 4.93611 12.8833 4.93611C12.8833 4.93611 12.8833 4.93611 12.8833 4.93611V4.93611C12.8833 4.93611 12.8833 4.93611 12.8833 4.93611C12.8833 4.93611 12.8833 4.93611 12.8833 4.93611V4.93611C12.8833 4.93611 12.8833 4.93611 12.8833 4.93611C12.8833 4.93611 12.8833 4.93611 12.8833 4.93612C12.8833 4.93612 12.8833 4.93612 12.8833 4.93612C12.8833 4.93612 12.8833 4.93612 12.8833 4.93612V4.93612C12.8833 4.93612 12.8833 4.93612 12.8833 4.93612V4.93612C12.8833 4.93612 12.8833 4.93612 12.8833 4.93612V4.93612C12.8833 4.93612 12.8833 4.93612 12.8833 4.93612V4.93612C12.8833 4.93612 12.8833 4.93612 12.8833 4.93612C12.8833 4.93612 12.8833 4.93612 12.8833 4.93612C12.8833 4.93612 12.8833 4.93612 12.8833 4.93612C12.8833 4.93612 12.8833 4.93612 12.8833 4.93612V4.93612C12.8833 4.93612 12.8833 4.93612 12.8833 4.93612V4.93612C12.8833 4.93612 12.8833 4.93612 12.8833 4.93612C12.8833 4.93612 12.8833 4.93612 12.8833 4.93612V4.93612C12.8833 4.93612 12.8833 4.93612 12.8833 4.93612C12.8833 4.93613 12.8833 4.93613 12.8833 4.93613V4.93613C12.8833 4.93613 12.8833 4.93613 12.8833 4.93613C12.8833 4.93613 12.8833 4.93613 12.8833 4.93613V4.93613C12.8833 4.93613 12.8833 4.93613 12.8833 4.93613C12.8833 4.93613 12.8833 4.93613 12.8833 4.93613V4.93613C12.8833 4.93613 12.8833 4.93613 12.8833 4.93613C12.8833 4.93613 12.8833 4.93613 12.8833 4.93613V4.93613C12.8833 4.93613 12.8833 4.93613 12.8833 4.93613C12.8833 4.93613 12.8833 4.93613 12.8833 4.93613V4.93613C12.8833 4.93613 12.8833 4.93613 12.8833 4.93613C12.8833 4.93613 12.8833 4.93613 12.8833 4.93613V4.93613V4.93613C12.8833 4.93613 12.8833 4.93613 12.8833 4.93613C12.8833 4.93613 12.8833 4.93613 12.8833 4.93613V4.93613C12.8833 4.93613 12.8833 4.93613 12.8833 4.93614C12.8833 4.93614 12.8833 4.93614 12.8833 4.93614V4.93614V4.93614C12.8833 4.93614 12.8833 4.93614 12.8833 4.93614C12.8833 4.93614 12.8833 4.93614 12.8833 4.93614V4.93614C12.8833 4.93614 12.8833 4.93614 12.8833 4.93614C12.8833 4.93614 12.8833 4.93614 12.8833 4.93614C12.8833 4.93614 12.8833 4.93614 12.8833 4.93614V4.93614C12.8833 4.93614 12.8833 4.93614 12.8833 4.93614C12.8833 4.93614 12.8833 4.93614 12.8833 4.93614V4.93614C12.8833 4.93614 12.8833 4.93614 12.8833 4.93614C12.8833 4.93614 12.8833 4.93614 12.8833 4.93614V4.93614V4.93614C12.8833 4.93614 12.8833 4.93614 12.8833 4.93614C12.8833 4.93614 12.8833 4.93614 12.8833 4.93614V4.93614C12.8833 4.93614 12.8833 4.93614 12.8833 4.93615C12.8833 4.93615 12.8833 4.93615 12.8833 4.93615V4.93615C12.8833 4.93615 12.8833 4.93615 12.8833 4.93615C12.8833 4.93615 12.8833 4.93615 12.8833 4.93615V4.93615C12.8833 4.93615 12.8833 4.93615 12.8833 4.93615C12.8833 4.93615 12.8833 4.93615 12.8833 4.93615V4.93615C12.8833 4.93615 12.8833 4.93615 12.8833 4.93615C12.8833 4.93615 12.8833 4.93615 12.8833 4.93615V4.93615C12.8833 4.93615 12.8833 4.93615 12.8833 4.93615C12.8833 4.93615 12.8833 4.93615 12.8833 4.93615V4.93615C12.8833 4.93615 12.8833 4.93615 12.8833 4.93615C12.8833 4.93615 12.8833 4.93615 12.8833 4.93615C12.8833 4.93615 12.8833 4.93615 12.8833 4.93615C12.8833 4.93615 12.8833 4.93615 12.8833 4.93615V4.93615C12.8833 4.93615 12.8833 4.93615 12.8833 4.93615V4.93616C12.8833 4.93616 12.8833 4.93616 12.8833 4.93616C12.8833 4.93616 12.8833 4.93616 12.8833 4.93616C12.8833 4.93616 12.8833 4.93616 12.8833 4.93616C12.8833 4.93616 12.8833 4.93616 12.8833 4.93616C12.8833 4.93616 12.8833 4.93616 12.8833 4.93616C12.8833 4.93616 12.8833 4.93616 12.8833 4.93616C12.8833 4.93616 12.8833 4.93616 12.8833 4.93616C12.8833 4.93616 12.8833 4.93616 12.8833 4.93616C12.8833 4.93616 12.8833 4.93616 12.8833 4.93616C12.8833 4.93616 12.8833 4.93616 12.8833 4.93616C12.8833 4.93616 12.8833 4.93616 12.8833 4.93616V4.93616C12.8833 4.93616 12.8833 4.93616 12.8833 4.93616C12.8833 4.93616 12.8833 4.93616 12.8833 4.93616V4.93616C12.8833 4.93616 12.8833 4.93616 12.8833 4.93616C12.8833 4.93616 12.8833 4.93616 12.8833 4.93616V4.93616C12.8833 4.93616 12.8833 4.93616 12.8833 4.93616C12.8833 4.93616 12.8833 4.93616 12.8833 4.93616C12.8833 4.93616 12.8833 4.93616 12.8833 4.93617C12.8833 4.93617 12.8833 4.93617 12.8833 4.93617C12.8833 4.93617 12.8833 4.93617 12.8833 4.93617C12.8833 4.93617 12.8833 4.93617 12.8833 4.93617C12.8833 4.93617 12.8833 4.93617 12.8833 4.93617C12.8833 4.93617 12.8833 4.93617 12.8833 4.93617C12.8833 4.93617 12.8833 4.93617 12.8833 4.93617C12.8833 4.93617 12.8833 4.93617 12.8833 4.93617C12.8833 4.93617 12.8833 4.93617 12.8833 4.93617V4.93617C12.8833 4.93617 12.8833 4.93617 12.8833 4.93617V4.93617V4.93617C12.8833 4.93617 12.8833 4.93617 12.8833 4.93617C12.8833 4.93617 12.8833 4.93617 12.8833 4.93617V4.93617C12.8833 4.93617 12.8833 4.93617 12.8833 4.93617V4.93617C12.8833 4.93617 12.8833 4.93617 12.8833 4.93617C12.8833 4.93617 12.8833 4.93617 12.8833 4.93617C12.8833 4.93617 13.1333 4.93617 13.3833 4.93617C13.3833 4.93617 13.3833 4.93617 13.3833 4.93617C13.3833 4.93617 13.3833 4.93617 13.3833 4.93617C13.3833 4.93617 13.3833 4.93617 13.3833 4.93617C13.3833 4.93617 13.3833 4.93617 13.3833 4.93617C13.3833 4.93617 13.3833 4.93617 13.3833 4.93617C13.3833 4.93617 13.3833 4.93617 13.3833 4.93617V4.93617C13.3833 4.93617 13.3833 4.93617 13.3833 4.93617C13.3833 4.93617 13.3833 4.93617 13.3833 4.93617V4.93617V4.93617C13.3833 4.93617 13.3833 4.93617 13.3833 4.93617C13.3833 4.93617 13.3833 4.93617 13.3833 4.93617C13.3833 4.93617 13.3833 4.93617 13.3833 4.93617V4.93617C13.3833 4.93617 13.3833 4.93617 13.3833 4.93617V4.93617C13.3833 4.93617 13.3833 4.93617 13.3833 4.93617V4.93617C13.3833 4.93617 13.3833 4.93617 13.3833 4.93616V4.93616C13.3833 4.93616 13.3833 4.93616 13.3833 4.93616C13.3833 4.93616 13.3833 4.93616 13.3833 4.93616C13.3833 4.93616 13.3833 4.93616 13.3833 4.93616V4.93616C13.3833 4.93616 13.3833 4.93616 13.3833 4.93616C13.3833 4.93616 13.3833 4.93616 13.3833 4.93616C13.3833 4.93616 13.3833 4.93616 13.3833 4.93616C13.3833 4.93616 13.3833 4.93616 13.3833 4.93616C13.3833 4.93616 13.3833 4.93616 13.3833 4.93616V4.93616V4.93616V4.93616V4.93616V4.93616V4.93616V4.93616V4.93616V4.93616V4.93616V4.93615C13.3833 4.93615 13.3833 4.93615 13.3833 4.93615C13.3833 4.93615 13.3833 4.93615 13.3833 4.93615C13.3833 4.93615 13.3833 4.93615 13.3833 4.93615C13.3833 4.93615 13.3833 4.93615 13.3833 4.93615C13.3833 4.93615 13.3833 4.93615 13.3833 4.93615V4.93615V4.93615C13.3833 4.93615 13.3833 4.93615 13.3833 4.93615C13.3833 4.93615 13.3833 4.93615 13.3833 4.93615V4.93615V4.93615C13.3833 4.93615 13.3833 4.93615 13.3833 4.93615C13.3833 4.93615 13.3833 4.93615 13.3833 4.93615V4.93615C13.3833 4.93615 13.3833 4.93615 13.3833 4.93615C13.3833 4.93615 13.3833 4.93615 13.3833 4.93615V4.93614C13.3833 4.93614 13.3833 4.93614 13.3833 4.93614V4.93614V4.93614C13.3833 4.93614 13.3833 4.93614 13.3833 4.93614V4.93614C13.3833 4.93614 13.3833 4.93614 13.3833 4.93614V4.93614C13.3833 4.93614 13.3833 4.93614 13.3833 4.93614V4.93614C13.3833 4.93614 13.3833 4.93614 13.3833 4.93614H12.8833C12.8833 4.93614 12.8833 4.93614 12.8833 4.93614V4.93614C12.8833 4.93614 12.8833 4.93614 12.8833 4.93614V4.93614C12.8833 4.93614 12.8833 4.93614 12.8833 4.93614V4.93614C12.8833 4.93614 12.8833 4.93614 12.8833 4.93614V4.93614V4.93614C12.8833 4.93614 12.8833 4.93614 12.8833 4.93614V4.93615C12.8833 4.93615 12.8833 4.93615 12.8833 4.93615C12.8833 4.93615 12.8833 4.93615 12.8833 4.93615V4.93615C12.8833 4.93615 12.8833 4.93615 12.8833 4.93615C12.8833 4.93615 12.8833 4.93615 12.8833 4.93615V4.93615V4.93615C12.8833 4.93615 12.8833 4.93615 12.8833 4.93615C12.8833 4.93615 12.8833 4.93615 12.8833 4.93615V4.93615V4.93615C12.8833 4.93615 12.8833 4.93615 12.8833 4.93615C12.8833 4.93615 12.8833 4.93615 12.8833 4.93615C12.8833 4.93615 12.8833 4.93615 12.8833 4.93615C12.8833 4.93615 12.8833 4.93615 12.8833 4.93615C12.8833 4.93615 12.8833 4.93615 12.8833 4.93615V4.93616V4.93616V4.93616V4.93616V4.93616V4.93616V4.93616V4.93616V4.93616V4.93616V4.93616C12.8833 4.93616 12.8833 4.93616 12.8833 4.93616C12.8833 4.93616 12.8833 4.93616 12.8833 4.93616C12.8833 4.93616 12.8833 4.93616 12.8833 4.93616C12.8833 4.93616 12.8833 4.93616 12.8833 4.93616C12.8833 4.93616 12.8833 4.93616 12.8833 4.93616V4.93616C12.8833 4.93616 12.8833 4.93616 12.8833 4.93616C12.8833 4.93616 12.8833 4.93616 12.8833 4.93616C12.8833 4.93616 12.8833 4.93616 12.8833 4.93616V4.93616C12.8833 4.93617 12.8833 4.93617 12.8833 4.93617V4.93617C12.8833 4.93617 12.8833 4.93617 12.8833 4.93617V4.93617C12.8833 4.93617 12.8833 4.93617 12.8833 4.93617V4.93617C12.8833 4.93617 12.8833 4.93617 12.8833 4.93617C12.8833 4.93617 12.8833 4.93617 12.8833 4.93617C12.8833 4.93617 12.8833 4.93617 12.8833 4.93617V4.93617V4.93617C12.8833 4.93617 12.8833 4.93617 12.8833 4.93617C12.8833 4.93617 12.8833 4.93617 12.8833 4.93617V4.93617C12.8833 4.93617 12.8833 4.93617 12.8833 4.93617C12.8833 4.93617 12.8833 4.93617 12.8833 4.93617C12.8833 4.93617 12.8833 4.93617 12.8833 4.93617C12.8833 4.93617 12.8833 4.93617 12.8833 4.93617C12.8833 4.93617 12.8833 4.93617 12.8833 4.93617C12.8833 4.93617 12.8833 4.93617 12.8833 4.93617C13.1333 4.93617 13.3833 4.93617 13.3833 4.93617C13.3833 4.93617 13.3833 4.93617 13.3833 4.93617C13.3833 4.93617 13.3833 4.93617 13.3833 4.93617V4.93617C13.3833 4.93617 13.3833 4.93617 13.3833 4.93617V4.93617C13.3833 4.93617 13.3833 4.93617 13.3833 4.93617C13.3833 4.93617 13.3833 4.93617 13.3833 4.93617V4.93617V4.93617C13.3833 4.93617 13.3833 4.93617 13.3833 4.93617V4.93617C13.3833 4.93617 13.3833 4.93617 13.3833 4.93617C13.3833 4.93617 13.3833 4.93617 13.3833 4.93617C13.3833 4.93617 13.3833 4.93617 13.3833 4.93617C13.3833 4.93617 13.3833 4.93617 13.3833 4.93617C13.3833 4.93617 13.3833 4.93617 13.3833 4.93617C13.3833 4.93617 13.3833 4.93617 13.3833 4.93617C13.3833 4.93617 13.3833 4.93617 13.3833 4.93617C13.3833 4.93617 13.3833 4.93617 13.3833 4.93617C13.3833 4.93616 13.3833 4.93616 13.3833 4.93616C13.3833 4.93616 13.3833 4.93616 13.3833 4.93616C13.3833 4.93616 13.3833 4.93616 13.3833 4.93616V4.93616C13.3833 4.93616 13.3833 4.93616 13.3833 4.93616C13.3833 4.93616 13.3833 4.93616 13.3833 4.93616V4.93616C13.3833 4.93616 13.3833 4.93616 13.3833 4.93616C13.3833 4.93616 13.3833 4.93616 13.3833 4.93616V4.93616C13.3833 4.93616 13.3833 4.93616 13.3833 4.93616C13.3833 4.93616 13.3833 4.93616 13.3833 4.93616C13.3833 4.93616 13.3833 4.93616 13.3833 4.93616C13.3833 4.93616 13.3833 4.93616 13.3833 4.93616C13.3833 4.93616 13.3833 4.93616 13.3833 4.93616C13.3833 4.93616 13.3833 4.93616 13.3833 4.93616C13.3833 4.93616 13.3833 4.93616 13.3833 4.93616C13.3833 4.93616 13.3833 4.93616 13.3833 4.93616C13.3833 4.93616 13.3833 4.93616 13.3833 4.93616C13.3833 4.93616 13.3833 4.93616 13.3833 4.93616C13.3833 4.93616 13.3833 4.93616 13.3833 4.93616V4.93615C13.3833 4.93615 13.3833 4.93615 13.3833 4.93615V4.93615C13.3833 4.93615 13.3833 4.93615 13.3833 4.93615C13.3833 4.93615 13.3833 4.93615 13.3833 4.93615C13.3833 4.93615 13.3833 4.93615 13.3833 4.93615C13.3833 4.93615 13.3833 4.93615 13.3833 4.93615V4.93615C13.3833 4.93615 13.3833 4.93615 13.3833 4.93615C13.3833 4.93615 13.3833 4.93615 13.3833 4.93615V4.93615C13.3833 4.93615 13.3833 4.93615 13.3833 4.93615C13.3833 4.93615 13.3833 4.93615 13.3833 4.93615V4.93615C13.3833 4.93615 13.3833 4.93615 13.3833 4.93615C13.3833 4.93615 13.3833 4.93615 13.3833 4.93615V4.93615C13.3833 4.93615 13.3833 4.93615 13.3833 4.93615C13.3833 4.93615 13.3833 4.93615 13.3833 4.93615V4.93615C13.3833 4.93615 13.3833 4.93615 13.3833 4.93615C13.3833 4.93614 13.3833 4.93614 13.3833 4.93614V4.93614C13.3833 4.93614 13.3833 4.93614 13.3833 4.93614C13.3833 4.93614 13.3833 4.93614 13.3833 4.93614V4.93614V4.93614C13.3833 4.93614 13.3833 4.93614 13.3833 4.93614C13.3833 4.93614 13.3833 4.93614 13.3833 4.93614V4.93614C13.3833 4.93614 13.3833 4.93614 13.3833 4.93614C13.3833 4.93614 13.3833 4.93614 13.3833 4.93614V4.93614C13.3833 4.93614 13.3833 4.93614 13.3833 4.93614C13.3833 4.93614 13.3833 4.93614 13.3833 4.93614C13.3833 4.93614 13.3833 4.93614 13.3833 4.93614V4.93614C13.3833 4.93614 13.3833 4.93614 13.3833 4.93614C13.3833 4.93614 13.3833 4.93614 13.3833 4.93614V4.93614V4.93614C13.3833 4.93614 13.3833 4.93614 13.3833 4.93614C13.3833 4.93613 13.3833 4.93613 13.3833 4.93613V4.93613C13.3833 4.93613 13.3833 4.93613 13.3833 4.93613C13.3833 4.93613 13.3833 4.93613 13.3833 4.93613V4.93613V4.93613C13.3833 4.93613 13.3833 4.93613 13.3833 4.93613C13.3833 4.93613 13.3833 4.93613 13.3833 4.93613V4.93613C13.3833 4.93613 13.3833 4.93613 13.3833 4.93613C13.3833 4.93613 13.3833 4.93613 13.3833 4.93613V4.93613C13.3833 4.93613 13.3833 4.93613 13.3833 4.93613C13.3833 4.93613 13.3833 4.93613 13.3833 4.93613V4.93613C13.3833 4.93613 13.3833 4.93613 13.3833 4.93613C13.3833 4.93613 13.3833 4.93613 13.3833 4.93613V4.93613C13.3833 4.93613 13.3833 4.93613 13.3833 4.93613C13.3833 4.93613 13.3833 4.93613 13.3833 4.93613V4.93613C13.3833 4.93613 13.3833 4.93613 13.3833 4.93612C13.3833 4.93612 13.3833 4.93612 13.3833 4.93612V4.93612C13.3833 4.93612 13.3833 4.93612 13.3833 4.93612C13.3833 4.93612 13.3833 4.93612 13.3833 4.93612V4.93612C13.3833 4.93612 13.3833 4.93612 13.3833 4.93612V4.93612C13.3833 4.93612 13.3833 4.93612 13.3833 4.93612C13.3833 4.93612 13.3833 4.93612 13.3833 4.93612C13.3833 4.93612 13.3833 4.93612 13.3833 4.93612C13.3833 4.93612 13.3833 4.93612 13.3833 4.93612V4.93612C13.3833 4.93612 13.3833 4.93612 13.3833 4.93612V4.93612C13.3833 4.93612 13.3833 4.93612 13.3833 4.93612V4.93612C13.3833 4.93612 13.3833 4.93612 13.3833 4.93612V4.93612C13.3833 4.93612 13.3833 4.93612 13.3833 4.93612C13.3833 4.93612 13.3833 4.93612 13.3833 4.93612C13.3833 4.93611 13.3833 4.93611 13.3833 4.93611C13.3833 4.93611 13.3833 4.93611 13.3833 4.93611V4.93611C13.3833 4.93611 13.3833 4.93611 13.3833 4.93611C13.3833 4.93611 13.3833 4.93611 13.3833 4.93611V4.93611C13.3833 4.93611 13.3833 4.93611 13.3833 4.93611C13.3833 4.93611 13.3833 4.93611 13.3833 4.93611C13.3833 4.93611 13.3833 4.93611 13.3833 4.93611V4.93611V4.93611C13.3833 4.93611 13.3833 4.93611 13.3833 4.93611C13.3833 4.93611 13.3833 4.93611 13.3833 4.93611C13.3833 4.93611 13.3833 4.93611 13.3833 4.93611C13.3833 4.93611 13.3833 4.93611 13.3833 4.93611C13.3833 4.93611 13.3833 4.93611 13.3833 4.93611V4.93611V4.93611C13.3833 4.93611 13.3833 4.93611 13.3833 4.93611C13.3833 4.93611 13.3833 4.93611 13.3833 4.93611C13.3833 4.93611 13.3833 4.93611 13.3833 4.93611C13.3833 4.9361 13.3833 4.9361 13.3833 4.9361C13.3833 4.9361 13.3833 4.9361 13.3833 4.9361C13.3833 4.9361 13.3833 4.9361 13.3833 4.9361C13.3833 4.9361 13.3833 4.9361 13.3833 4.9361V4.9361C13.3833 4.9361 13.3833 4.9361 13.3833 4.9361C13.3833 4.9361 13.3833 4.9361 13.3833 4.9361C13.3833 4.9361 13.3833 4.9361 13.3833 4.9361C13.3833 4.9361 13.3833 4.9361 13.3833 4.9361C13.3833 4.9361 13.1333 4.9361 12.8833 4.9361V4.9361C12.8833 4.9361 12.8833 4.9361 12.8833 4.9361C12.8833 4.9361 12.8833 4.9361 12.8833 4.9361C12.8833 4.9361 12.8833 4.9361 12.8833 4.9361C12.8833 4.9361 12.8833 4.9361 12.8833 4.9361C12.8833 4.9361 12.8833 4.9361 12.8833 4.9361C12.8833 4.9361 12.8833 4.9361 12.8833 4.9361V4.9361C12.8833 4.9361 12.8833 4.9361 12.8833 4.93611C12.8833 4.93611 12.8833 4.93611 12.8833 4.93611C12.8833 4.93611 12.8833 4.93611 12.8833 4.93611C12.8833 4.93611 12.8833 4.93611 12.8833 4.93611V4.93611V4.93611C12.8833 4.93611 12.8833 4.93611 12.8833 4.93611C12.8833 4.93611 12.8833 4.93611 12.8833 4.93611C12.8833 4.93611 12.8833 4.93611 12.8833 4.93611C12.8833 4.93611 12.8833 4.93611 12.8833 4.93611C12.8833 4.93611 12.8833 4.93611 12.8833 4.93611V4.93611C12.8833 4.93611 12.8833 4.93611 12.8833 4.93611V4.93611V4.93611C12.8833 4.93611 12.8833 4.93611 12.8833 4.93611C12.8833 4.93611 12.8833 4.93611 12.8833 4.93611V4.93611V4.93611C12.8833 4.93611 12.8833 4.93611 12.8833 4.93611C12.8833 4.93611 12.8833 4.93611 12.8833 4.93611C12.8833 4.93612 12.8833 4.93612 12.8833 4.93612C12.8833 4.93612 12.8833 4.93612 12.8833 4.93612C12.8833 4.93612 12.8833 4.93612 12.8833 4.93612C12.8833 4.93612 12.8833 4.93612 12.8833 4.93612C12.8833 4.93612 12.8833 4.93612 12.8833 4.93612C12.8833 4.93612 12.8833 4.93612 12.8833 4.93612C12.8833 4.93612 12.8833 4.93612 12.8833 4.93612C12.8833 4.93612 12.8833 4.93612 12.8833 4.93612C12.8833 4.93612 12.8833 4.93612 12.8833 4.93612C12.8833 4.93612 12.8833 4.93612 12.8833 4.93612C12.8833 4.93612 12.8833 4.93612 12.8833 4.93612C12.8833 4.93612 12.8833 4.93612 12.8833 4.93612C12.8833 4.93612 12.8833 4.93612 12.8833 4.93612C12.8833 4.93612 12.8833 4.93612 12.8833 4.93612C12.8833 4.93612 12.8833 4.93612 12.8833 4.93612V4.93612V4.93612V4.93612C12.8833 4.93612 12.8833 4.93612 12.8833 4.93612C12.8833 4.93612 12.8833 4.93612 12.8833 4.93613V4.93613V4.93613C12.8833 4.93613 12.8833 4.93613 12.8833 4.93613C12.8833 4.93613 12.8833 4.93613 12.8833 4.93613V4.93613V4.93613C12.8833 4.93613 12.8833 4.93613 12.8833 4.93613V4.93613C12.8833 4.93613 12.8833 4.93613 12.8833 4.93613C12.8833 4.93613 12.8833 4.93613 12.8833 4.93613V4.93613C12.8833 4.93613 12.8833 4.93613 12.8833 4.93613V4.93613C12.8833 4.93613 12.8833 4.93613 12.8833 4.93613V4.93613C12.8833 4.93614 12.8833 4.93614 12.8833 4.93614V4.93614C12.8833 4.93614 12.8833 4.93614 12.8833 4.93614V4.93614H13.3833ZM11.8098 2.03996L11.4846 2.41982L11.4846 2.41982L11.8098 2.03996ZM8.68804 0.605272L8.61222 1.09949L8.61223 1.09949L8.68804 0.605272ZM2.96482 2.72663L3.34468 3.05176L3.34468 3.05175L2.96482 2.72663ZM3.65148 11.5717L3.32635 11.9515L3.32635 11.9515L3.65148 11.5717ZM6.77316 13.0063L6.84899 12.5121L6.84898 12.5121L6.77316 13.0063ZM12.4964 10.8849L12.1165 10.5598L12.1165 10.5598L12.4964 10.8849ZM13.0256 8.62562L12.8627 9.09832C12.9881 9.14157 13.1256 9.13317 13.2449 9.07499C13.3641 9.0168 13.4554 8.9136 13.4985 8.7881L13.0256 8.62562ZM11.1084 7.96468L10.6354 7.80257C10.546 8.06347 10.6847 8.3475 10.9454 8.43739L11.1084 7.96468ZM11.109 5.64883L10.9463 5.17604C10.6856 5.26575 10.5467 5.54949 10.6358 5.81036L11.109 5.64883ZM13.0242 4.98971L13.4972 4.82783C13.4543 4.70222 13.3631 4.59886 13.2438 4.54054C13.1246 4.48222 12.987 4.47373 12.8615 4.51693L13.0242 4.98971ZM13.3094 6.37527L12.8109 6.41397L12.8109 6.41399L13.3094 6.37527ZM11.9496 3.13395L12.2775 3.51142C12.3779 3.42422 12.4394 3.30063 12.4485 3.16798C12.4575 3.03532 12.4133 2.90452 12.3257 2.8045L11.9496 3.13395ZM10.4232 4.45988L10.0467 4.78885C10.228 4.99639 10.5431 5.01808 10.7511 4.83735L10.4232 4.45988ZM10.0529 4.09268L10.378 3.71283L10.378 3.71281L10.0529 4.09268ZM8.41779 3.30166L7.92699 3.20616C7.87427 3.47713 8.05112 3.73956 8.32207 3.79241L8.41779 3.30166ZM8.80268 1.32363L8.89786 0.832777C8.62689 0.780234 8.3646 0.9572 8.31188 1.22813L8.80268 1.32363ZM11.3687 2.55972L11.0435 2.93958L11.0436 2.93959L11.3687 2.55972ZM5.82679 1.54746L5.65737 1.07704L5.65725 1.07708L5.82679 1.54746ZM6.66089 1.31944L7.15174 1.22423C7.09925 0.95365 6.8377 0.776578 6.56698 0.828342L6.66089 1.31944ZM7.04544 3.30178L7.14109 3.79255C7.41196 3.73976 7.58884 3.47749 7.53629 3.20657L7.04544 3.30178ZM5.03983 4.45882L4.71172 4.83611C4.9199 5.01715 5.23537 4.99537 5.41669 4.78743L5.03983 4.45882ZM3.51191 3.13006L3.13497 2.80155C3.04779 2.90159 3.00395 3.03219 3.01311 3.16457C3.02227 3.29695 3.08367 3.42026 3.1838 3.50734L3.51191 3.13006ZM2.43592 4.98599L2.59889 4.51329C2.47346 4.47005 2.33599 4.47843 2.21675 4.53659C2.0975 4.59474 2.00626 4.6979 1.96311 4.82336L2.43592 4.98599ZM4.35283 5.64688L4.82582 5.809C4.91524 5.54811 4.77653 5.26408 4.5158 5.17419L4.35283 5.64688ZM4.35219 7.9627L4.5149 8.43548C4.77554 8.34578 4.91443 8.06206 4.82539 7.80119L4.35219 7.9627ZM2.43537 8.62236L1.96215 8.7838C2.00504 8.90953 2.0962 9.01302 2.21551 9.07143C2.33482 9.12984 2.47247 9.13838 2.59808 9.09515L2.43537 8.62236ZM2.15128 7.23904L1.65278 7.27773L1.65278 7.27773L2.15128 7.23904ZM3.5084 10.4802L3.18052 10.1028C3.08021 10.1899 3.01871 10.3133 3.00958 10.4459C3.00046 10.5784 3.04446 10.7092 3.13188 10.8092L3.5084 10.4802ZM5.03801 9.15164L5.4146 8.82274C5.2333 8.61515 4.91821 8.59342 4.71013 8.77416L5.03801 9.15164ZM5.40847 9.51897L5.7336 9.13911L5.73355 9.13907L5.40847 9.51897ZM7.04341 10.31L7.5342 10.4054C7.58692 10.1345 7.41009 9.87208 7.13917 9.81921L7.04341 10.31ZM6.65649 12.2988L6.5609 12.7896C6.69108 12.8149 6.826 12.7875 6.93597 12.7134C7.04595 12.6393 7.12196 12.5245 7.14728 12.3943L6.65649 12.2988ZM4.09181 11.0575L4.41696 10.6776L4.41686 10.6776L4.09181 11.0575ZM9.63343 12.0701L9.80291 12.5405L9.80296 12.5405L9.63343 12.0701ZM8.80153 12.2988L8.31068 12.394C8.36326 12.665 8.6256 12.8422 8.89666 12.7896L8.80153 12.2988ZM8.41571 10.3098L8.32007 9.81902C8.04919 9.87181 7.87231 10.1341 7.92486 10.405L8.41571 10.3098ZM10.4214 9.1527L10.7495 8.7754C10.5413 8.59437 10.2258 8.61617 10.0445 8.82411L10.4214 9.1527ZM11.95 10.4819L12.327 10.8103C12.4141 10.7102 12.4579 10.5796 12.4488 10.4473C12.4396 10.3149 12.3782 10.1916 12.278 10.1046L11.95 10.4819ZM12.8765 7.1185C12.8765 10.1338 10.4322 12.5781 7.41693 12.5781V13.5781C10.9845 13.5781 13.8765 10.686 13.8765 7.1185H12.8765ZM7.41693 12.5781C4.40168 12.5781 1.95734 10.1338 1.95734 7.1185H0.957336C0.957336 10.686 3.84939 13.5781 7.41693 13.5781V12.5781ZM1.95734 7.1185C1.95734 4.10324 4.40168 1.65889 7.41693 1.65889V0.658887C3.84939 0.658887 0.957336 3.55096 0.957336 7.1185H1.95734ZM7.41693 1.65889C10.4322 1.65889 12.8765 4.10324 12.8765 7.1185H13.8765C13.8765 3.55096 10.9845 0.658887 7.41693 0.658887V1.65889ZM12.1349 1.66011C11.1407 0.809154 9.96991 0.296042 8.76384 0.111052L8.61223 1.09949C9.63932 1.25703 10.6361 1.69355 11.4846 2.41982L12.1349 1.66011ZM8.76386 0.111054C6.52686 -0.232131 4.16631 0.553924 2.58496 2.40151L3.34468 3.05175C4.69186 1.47778 6.70266 0.806539 8.61222 1.09949L8.76386 0.111054ZM2.58496 2.4015C0.152523 5.24344 0.484426 9.51905 3.32635 11.9515L3.97661 11.1918C1.55426 9.11847 1.27136 5.47411 3.34468 3.05176L2.58496 2.4015ZM3.32635 11.9515C4.32052 12.8025 5.49129 13.3155 6.69734 13.5006L6.84898 12.5121C5.82187 12.3545 4.82508 11.9181 3.97661 11.1918L3.32635 11.9515ZM6.69733 13.5006C8.9343 13.8438 11.2949 13.0576 12.8762 11.21L12.1165 10.5598C10.7694 12.1338 8.75848 12.8051 6.84899 12.5121L6.69733 13.5006ZM12.8762 11.21C15.3087 8.36813 14.9767 4.09251 12.1349 1.66011L11.4846 2.41982C13.9069 4.4931 14.1898 8.13745 12.1165 10.5598L12.8762 11.21ZM13.1886 8.15292L11.2713 7.49198L10.9454 8.43739L12.8627 9.09832L13.1886 8.15292ZM11.5814 8.1268C11.8759 7.26757 11.8721 6.3368 11.5821 5.4873L10.6358 5.81036C10.8548 6.45193 10.8573 7.15499 10.6354 7.80257L11.5814 8.1268ZM11.2717 6.12161L13.1869 5.4625L12.8615 4.51693L10.9463 5.17604L11.2717 6.12161ZM12.5511 5.1516C12.6888 5.55412 12.777 5.97722 12.8109 6.41397L13.8079 6.33658C13.7675 5.8159 13.6622 5.31002 13.4972 4.82783L12.5511 5.1516ZM12.8109 6.41399C12.8658 7.12095 12.7755 7.8148 12.5528 8.46314L13.4985 8.7881C13.7658 8.01005 13.8733 7.17923 13.8079 6.33656L12.8109 6.41399ZM11.6217 2.75648L10.0953 4.08241L10.7511 4.83735L12.2775 3.51142L11.6217 2.75648ZM10.7998 4.13092C10.6717 3.9843 10.5314 3.84418 10.378 3.71283L9.72771 4.47253C9.84282 4.57106 9.94888 4.6769 10.0467 4.78885L10.7998 4.13092ZM10.378 3.71281C9.82504 3.23959 9.18072 2.94105 8.51351 2.81091L8.32207 3.79241C8.82514 3.89054 9.31013 4.11514 9.72774 4.47255L10.378 3.71281ZM8.90858 3.39716L9.29347 1.41913L8.31188 1.22813L7.92699 3.20616L8.90858 3.39716ZM8.70749 1.81449C9.5687 1.98149 10.3728 2.36546 11.0435 2.93958L11.6938 2.17987C10.8897 1.49162 9.92661 1.03226 8.89786 0.832777L8.70749 1.81449ZM11.0436 2.93959C11.2343 3.10287 11.4112 3.27805 11.5735 3.46339L12.3257 2.8045C12.132 2.58333 11.9211 2.37443 11.6938 2.17986L11.0436 2.93959ZM5.99621 2.01788C6.24317 1.92894 6.4969 1.85986 6.75479 1.81055L6.56698 0.828342C6.25874 0.887281 5.95446 0.970041 5.65737 1.07704L5.99621 2.01788ZM6.17004 1.41466L6.55459 3.397L7.53629 3.20657L7.15174 1.22423L6.17004 1.41466ZM6.94979 2.81102C6.09183 2.97823 5.28076 3.4217 4.66297 4.13022L5.41669 4.78743C5.88301 4.25262 6.49343 3.91878 7.14109 3.79255L6.94979 2.81102ZM5.36794 4.08154L3.84002 2.75277L3.1838 3.50734L4.71172 4.83611L5.36794 4.08154ZM3.88886 3.45856C4.45822 2.80524 5.18532 2.31014 5.99632 2.01784L5.65725 1.07708C4.68707 1.42675 3.81689 2.01908 3.13497 2.80155L3.88886 3.45856ZM2.27295 5.45868L4.18986 6.11958L4.5158 5.17419L2.59889 4.51329L2.27295 5.45868ZM3.87984 5.48477C3.58534 6.344 3.58906 7.27468 3.87899 8.1242L4.82539 7.80119C4.60641 7.15957 4.60386 6.45657 4.82582 5.809L3.87984 5.48477ZM4.18949 7.48991L2.27266 8.14958L2.59808 9.09515L4.5149 8.43548L4.18949 7.48991ZM2.90859 8.46092C2.7714 8.05878 2.68361 7.63625 2.64979 7.20036L1.65278 7.27773C1.6931 7.79722 1.79786 8.30224 1.96215 8.7838L2.90859 8.46092ZM2.64979 7.20036C2.59488 6.49278 2.68543 5.79783 2.90873 5.14862L1.96311 4.82336C1.69518 5.60232 1.58734 6.43432 1.65278 7.27773L2.64979 7.20036ZM3.83628 10.8577L5.36589 9.52913L4.71013 8.77416L3.18052 10.1028L3.83628 10.8577ZM4.66141 9.48055C4.7895 9.62721 4.92981 9.76745 5.08339 9.89887L5.73355 9.13907C5.61848 9.04061 5.51241 8.93473 5.4146 8.82274L4.66141 9.48055ZM5.08334 9.89883C5.63625 10.3721 6.28054 10.6705 6.94764 10.8007L7.13917 9.81921C6.63607 9.72103 6.15113 9.49649 5.7336 9.13911L5.08334 9.89883ZM6.55261 10.2145L6.16569 12.2033L7.14728 12.3943L7.5342 10.4054L6.55261 10.2145ZM6.75207 11.808C5.89239 11.6406 5.08866 11.2526 4.41696 10.6776L3.76666 11.4373C4.56925 12.1243 5.53105 12.589 6.5609 12.7896L6.75207 11.808ZM4.41686 10.6776C4.22519 10.5136 4.04775 10.3376 3.88492 10.1513L3.13188 10.8092C3.32639 11.0318 3.5382 11.2418 3.76675 11.4374L4.41686 10.6776ZM9.46396 11.5997C9.21735 11.6886 8.96389 11.758 8.70641 11.8079L8.89666 12.7896C9.20387 12.7301 9.50708 12.6471 9.80291 12.5405L9.46396 11.5997ZM9.29239 12.2036L8.90657 10.2146L7.92486 10.405L8.31068 12.394L9.29239 12.2036ZM8.51136 10.8005C9.36931 10.6333 10.1804 10.1899 10.7982 9.48129L10.0445 8.82411C9.57818 9.35895 8.96773 9.69279 8.32007 9.81902L8.51136 10.8005ZM10.0933 9.53001L11.6219 10.8592L12.278 10.1046L10.7495 8.7754L10.0933 9.53001ZM11.5729 10.1535C11.0026 10.8084 10.2741 11.3077 9.4639 11.5997L9.80296 12.5405C10.7747 12.1903 11.6456 11.5927 12.327 10.8103L11.5729 10.1535Z" fill="url(#paint2_linear_0_591)" mask="url(#path-1-outside-1_0_591)"/>
<defs>
<linearGradient id="paint0_linear_0_591" x1="7.73059" y1="0.532555" x2="7.73059" y2="13.0791" gradientUnits="userSpaceOnUse">
<stop stop-color="#6461E6"/>
<stop offset="0.9999" stop-color="#6461E6"/>
<stop offset="1" stop-color="#FEAD63"/>
</linearGradient>
<linearGradient id="paint1_linear_0_591" x1="7.73059" y1="0.532555" x2="7.73059" y2="13.0791" gradientUnits="userSpaceOnUse">
<stop stop-color="#B0B1FC"/>
<stop offset="1" stop-color="#9D9CFE"/>
</linearGradient>
<linearGradient id="paint2_linear_0_591" x1="7.73059" y1="0.532555" x2="7.73059" y2="13.0791" gradientUnits="userSpaceOnUse">
<stop stop-color="#B0B0FC"/>
<stop offset="1" stop-color="#9D9BFE"/>
</linearGradient>
</defs>
</svg>
